<svg xmlns="http://www.w3.org/2000/svg"><symbol fill="none" id="icon-404" viewBox="0 0 551 197"><title>404</title><path stroke="#ED6C2D" stroke-width="3" d="M1.62 151.49v1.5h98.78v38.51h44.4v-38.51h29.86V115.4h-29.87V81.08h-43.08v34.32H56.83l78.5-107.92 1.74-2.38H88.83l-.45.6L1.92 122.04l-.3.4v29.06Zm229.54 31.92h.01c12.14 7.5 25.87 11.23 41.15 11.23 15.44 0 29.17-3.73 41.14-11.23 12.15-7.68 21.67-18.74 28.59-33.1 6.93-14.4 10.37-31.76 10.37-52.01 0-20.25-3.44-37.6-10.37-52-6.92-14.37-16.44-25.34-28.59-32.85-11.96-7.67-25.7-11.5-41.14-11.5-15.29 0-29.02 3.83-41.15 11.5-12.15 7.5-21.67 18.48-28.59 32.85-6.93 14.4-10.37 31.75-10.37 52s3.44 37.6 10.37 52c6.92 14.37 16.44 25.43 28.58 33.1Zm58.86-33.4v.02H290c-4.95 3.8-10.82 5.72-17.69 5.72a28.9 28.9 0 0 1-17.7-5.72c-4.92-3.79-8.98-9.87-12.06-18.43-2.9-8.52-4.37-19.6-4.37-33.3 0-13.7 1.48-24.78 4.37-33.3 3.08-8.56 7.14-14.64 12.07-18.43a28.9 28.9 0 0 1 17.7-5.72c6.86 0 12.73 1.92 17.68 5.72h.01l.01.01c5.1 3.78 9.15 9.86 12.05 18.4V65l.01.01c3.07 8.51 4.63 19.59 4.63 33.29s-1.56 24.78-4.63 33.29v.03c-2.91 8.54-6.96 14.62-12.06 18.4Zm85.78 1.48v1.5h98.77v38.51h44.4v-38.51h29.87V115.4h-29.87V81.08h-43.09v34.32H431L509.51 7.48l1.74-2.38H463l-.45.6-86.46 116.33-.3.4v29.06Z"/></symbol><symbol fill="none" id="icon-callback" viewBox="0 0 23 23"><title>callback</title><path d="M7.003 11.572a9.559 9.559 0 0 0 4.459 4.448.915.915 0 0 0 .903-.069l2.859-1.909a.903.903 0 0 1 .869-.08l5.35 2.298a.903.903 0 0 1 .55.95A5.488 5.488 0 0 1 16.55 22 15.55 15.55 0 0 1 1 6.45a5.488 5.488 0 0 1 4.79-5.443.903.903 0 0 1 .95.55l2.298 5.362a.915.915 0 0 1-.069.857L7.06 10.68a.915.915 0 0 0-.057.892v0Z" stroke="#fff" stroke-width="2" stroke-linecap="round" stroke-linejoin="round"/></symbol><symbol fill="none" id="icon-checkbox" viewBox="0 0 11 8"><title>checkbox</title><path d="M10 1 4 7 1 4" stroke="#fff" stroke-width="2" stroke-linecap="round" stroke-linejoin="round"/></symbol><symbol fill="none" id="icon-close" viewBox="0 0 18 18"><title>close</title><path d="M17 1 1 17m16 0L1 1" stroke="#207FF1" stroke-width="2" stroke-linecap="round" stroke-linejoin="round"/></symbol><symbol fill="none" id="icon-logo" viewBox="0 0 53 47"><title>logo</title><path fill-rule="evenodd" clip-rule="evenodd" d="M28.937.21c-.457.29-.182 1.03.813 2.184.428.497.779 1.139.779 1.425 0 .332.871 1.181 2.407 2.344 2.337 1.771 2.363 1.783.894.405-1.458-1.368-1.468-1.387-.275-.519.68.496 1.768 1.438 2.416 2.093 1.12 1.133 1.145 1.192.5 1.192-.374 0-.973-.112-1.33-.248-.948-.36-2.137-.066-2.137.529 0 .432-.271.492-2.237.492-1.574 0-2.306.11-2.471.37-.143.226-.236-.353-.24-1.481-.004-2.306-.318-2.56-3.493-2.828l-2.252-.191-.19 1.01c-.104.555-.101 2.479.006 4.274l.195 3.266-1.276-.104c-1.432-.117-1.55.014-1.617 1.783-.042 1.1-.048 1.106-1.142 1.103-2.055-.004-2.339-.19-2.339-1.54 0-.889-.108-1.207-.412-1.207-.263 0-.42-.275-.43-.756-.018-.742-.023-.745-.273-.12-.147.367-.386.556-.563.446-.17-.105-.417-.02-.549.189-.136.215-.242.246-.244.071-.003-.183-.359-.266-.882-.205-.506.059-.97-.044-1.096-.243-.157-.246-.22-.208-.223.137-.002.265-.11.482-.241.482-.13 0-.178.31-.106.688.077.401.004.688-.175.688-.17 0-.318-.465-.331-1.032l-.024-1.033-.276.826c-.349 1.042-.442 10.369-.13 12.935.13 1.06.274 3.083.323 4.497.048 1.414.232 3.171.407 3.905.3 1.248.396 2.392.505 5.99.07 2.35.81 2.806 4.72 2.912l1.238.034-.061-3.096c-.052-2.574.006-3.096.343-3.096.224 0 .408.216.41.481.003.37.059.396.237.114.129-.202.338-.347.467-.323.128.024.322-.182.431-.459.158-.4.202-.412.217-.064.014.316.264.423.905.384.487-.028 1.026.089 1.198.26.172.173.405 1.61.517 3.193.205 2.888.502 4 .99 3.698.25-.155.384.253.274.834-.029.151.095.13.276-.047.18-.178.489-.26.685-.185.214.081.407-.12.48-.504.108-.567.126-.575.16-.068.03.477.177.55.892.445.544-.08.944.013 1.096.254.258.408.39-.376.277-1.643-.037-.422.066-.606.297-.529.195.065.381.464.414.886.032.421.143.845.248.941.415.384-.363-11.027-.875-12.829-.127-.447-.06-.619.24-.619.323 0 .458.51.602 2.27.226 2.761.349 3.234.84 3.234.209 0 .506.217.66.482.155.265.284.33.289.146.004-.184.194-.264.42-.177.274.105.42-.015.433-.353.015-.405.058-.425.206-.098.213.47 1.995.576 2.313.138.11-.151.133-.492.05-.757-.09-.293-.006-.482.216-.482.215 0 .508.598.71 1.445.188.795.577 1.63.865 1.858.288.227.582.66.653.963.13.547.13.547.163-.005.028-.495.219-.554 1.793-.55.97.002 1.705-.088 1.635-.202-.07-.113 0-.206.157-.206.169 0 .217-.334.119-.826-.1-.503-.051-.825.128-.825.16 0 .351.464.423 1.032.072.568.075-1.09.008-3.681-.068-2.593-.244-5.44-.391-6.33-.415-2.505-1.14-11.677-1.14-14.414 0-.765.38-5.09.454-5.169.04-.042.577.33 1.193.826a78.894 78.894 0 0 0 2.639 2.004c.835.606 1.524 1.318 1.53 1.583.006.265.104.49.218.502.966.099 1.4.344 1.994 1.126.378.499.977 1.18 1.33 1.515.792.751 2.797 1.82 2.797 1.492 0-.132.155-.234.344-.227.852.032 1.306-.097 1.306-.369 0-.162.2-.494.443-.738.408-.408.402-.473-.067-.817-.375-.274-.421-.429-.175-.58.222-.138-.227-.618-1.33-1.422-.917-.667-1.963-1.565-2.324-1.995-.362-.43-2.673-2.3-5.136-4.156a722.241 722.241 0 0 1-6.758-5.148c-2.418-1.881-3.91-2.887-3.91-2.636 0 .084.279.42.62.747.473.455.23.385-1.032-.298-.908-.492-1.906-1.126-2.219-1.41-.623-.566-.903-.622-1.436-.284Zm-6.386.455c-.378.216-1.06.398-1.513.404-.987.013-2.677 1.088-4.23 2.692-.64.66-1.391 1.17-1.724 1.17-.325 0-.851.26-1.17.58C12.7 6.728 6.74 10.71 6.131 10.71c-.359 0-.636.166-.636.38 0 .48-.994 1.143-2.068 1.38-.451.099-1.39.703-2.085 1.343-1.034.951-1.276 1.355-1.33 2.225-.044.702.034 1.001.229.88.177-.109.235-.025.146.21-.192.498.66.842 1.127.455.252-.209.384-.194.466.055.078.232.562.024 1.471-.63.746-.537 2.164-1.413 3.152-1.947.987-.534 3.235-2.01 4.995-3.28 5.765-4.16 9.175-6.544 9.592-6.704.225-.086.567-.41.76-.719.33-.527.313-.541-.28-.232-.62.323-.62.315.055-.434.379-.42 1.176-1.12 1.771-1.558 1.299-.955 1.525-1.887.453-1.872-.39.005-1.02.186-1.398.403ZM15.91 4.12l-.65.567.756-.461c.416-.253.757-.508.757-.567 0-.215-.23-.092-.864.461Z" fill="#207FF1"/><path d="M26.12 27.06 27.477 34m5.239-27 .279 7.066" stroke="#fff" stroke-width=".5"/></symbol><symbol fill="none" id="icon-mail" viewBox="0 0 22 17"><title>mail</title><path d="M1 1h20M1 1v14.167a.833.833 0 0 0 .833.833h18.334a.833.833 0 0 0 .833-.833V1M1 1l10 9.167L21 1" stroke="#207FF1" stroke-width="1.5" stroke-linecap="round" stroke-linejoin="round"/></symbol><symbol fill="none" id="icon-phone" viewBox="0 0 17 19"><title>phone</title><path d="M5.41 18.074c.106.14.246.176.422.176.106 0 .211 0 .316-.07l2.286-1.442a.561.561 0 0 0 .28-.492c0-.07 0-.176-.034-.246l-1.16-2.848c-.07-.21-.282-.351-.563-.351h-.035l-1.969.176a9.217 9.217 0 0 1 0-6.293l1.969.175h.035c.281 0 .492-.14.563-.351L8.68 3.66c.035-.07.035-.176.035-.246a.561.561 0 0 0-.281-.492L6.148 1.48a.591.591 0 0 0-.738.106C.84 6.12.84 13.539 5.41 18.074Zm5.274-14.449c-.141-.246-.457-.281-.668-.105l-.211.21a.426.426 0 0 0-.07.528c.07.14.105.316.105.527 0 .176-.035.352-.106.492a.426.426 0 0 0 .07.528l.212.21c.21.176.527.141.668-.105a2.396 2.396 0 0 0 0-2.285Zm3.199-3.2c-.14-.21-.422-.21-.598-.034l-.21.175c-.141.176-.177.422-.036.598a5.584 5.584 0 0 1 0 7.207c-.14.176-.105.422.035.598l.211.176c.176.175.457.175.598-.036a6.665 6.665 0 0 0 0-8.683Zm-1.617 1.583c-.141-.211-.422-.246-.598-.07l-.211.21c-.176.141-.176.387-.07.563a3.327 3.327 0 0 1 0 4.113c-.106.176-.106.422.07.563l.211.21c.176.176.457.141.598-.07 1.3-1.617 1.265-3.902 0-5.52Z" fill="#207FF1"/></symbol><symbol fill="none" id="icon-whatsApp" viewBox="0 0 20 20"><title>whatsApp</title><path d="m5.488 17.732.188.103a9.348 9.348 0 0 0 4.505 1.15c5.151 0 9.319-4.142 9.319-9.242C19.5 4.643 15.333.5 10.182.5L5.488 17.732Zm0 0-.204.065m.204-.065-.204.065m0 0L.791 19.224m4.493-1.427L.791 19.224m0 0 1.454-4.292.075-.221-.121-.2A9.143 9.143 0 0 1 .864 9.742M.79 19.224 10.182.5C5.032.5.865 4.641.864 9.742m0 0h-.5.5Zm4.704 7.385a8.752 8.752 0 0 0 4.612 1.306c4.824 0 8.755-3.893 8.756-8.69L5.568 17.127Zm0 0-2.948.937-.942.299.317-.936.948-2.8a8.597 8.597 0 0 1-1.516-4.882c0-4.797 3.93-8.692 8.753-8.692 4.825 0 8.757 3.895 8.756 8.69L5.568 17.127Zm2.47-8.402-.352-.354-.01.01a1.047 1.047 0 0 0-.256.366.815.815 0 0 0 .083.718c.15.257.664 1.09 1.437 1.775a6.785 6.785 0 0 0 1.914 1.2l.13.057.004.003c.153.075.354.148.58.12a.848.848 0 0 0 .536-.3c.124-.14.545-.628.753-.92.002.002.004.002.007.003l.002.001c.079.028.399.176.767.352.352.168.705.341.82.4h.001a11.403 11.403 0 0 0 .17.083l.05.024a2.511 2.511 0 0 1-.145.694c-.042.116-.217.313-.52.508-.297.19-.574.287-.68.297a2.362 2.362 0 0 0-.348.066.767.767 0 0 1-.25.01c-.286-.028-.841-.164-2.062-.64-2.08-.813-3.467-2.823-3.823-3.338a2.679 2.679 0 0 0-.073-.104 5.286 5.286 0 0 1-.49-.779c-.213-.418-.39-.913-.39-1.388 0-.898.424-1.35.66-1.6l.05-.054a.384.384 0 0 1 .273-.135c.062 0 .127.003.206.008l.013.001a3.884 3.884 0 0 0 .278.01.95.95 0 0 1 .044.092l.297.713.127.305a27.117 27.117 0 0 0 .335.79l-.02.04c-.058.118-.074.151-.134.22h-.001l-.15.18a3.13 3.13 0 0 1-.186.213l.354.353Zm0 0c.073-.072.156-.173.24-.273.041-.05.082-.1.122-.146m-.361.42c-.12.118-.247.247-.105.486l.466-.906m0 0c.103-.119.147-.208.208-.332l.033-.065-.241.397Z" fill="#000" stroke="#207FF1"/></symbol></svg>